<?xml version="1.0" encoding="UTF-8"?>
<svg width="605px" height="612px" viewBox="0 0 605 612" version="1.1" xmlns="http://www.w3.org/2000/svg" xmlns:xlink="http://www.w3.org/1999/xlink">
    <title>шкн</title>
    <g id="Page-1" stroke="none" stroke-width="1" fill="none" fill-rule="evenodd">
        <path d="M75,601 L75,571 L197,571 L197,369 L13,369 L13,601 L75,601 Z M135,515 L75,515 L75,425 L135,425 L135,515 Z M189,339 L189,282 L21,282 L21,339 L189,339 Z M189,252 L189,195 L21,195 L21,252 L189,252 Z M210,165 L210,105 L0,105 L0,165 L210,165 Z M189,75 L189,18 L21,18 L21,75 L189,75 Z M550,215 L550,155 L436,155 L436,115 L573,115 L573,55 L436,55 L436,0 L368,0 L367.880305,54.7784946 L231,55 L231,115 L368,115 L368,155 L254,155 L254,215 L550,215 Z M374,347 C374,402.458065 367.880305,449.587097 354.670294,488.539785 C339.478781,538.055914 302.445049,578.989247 243,612 L200,560 C248.87704,534.251613 280.033732,503.064516 295.885745,467.412903 C307.774755,436.382796 313.339499,395.855914 314,347 Z M480,347 L480.165397,528.152688 C480.165397,538.716129 484.431991,545 495,545 L524,545 C529.284004,545 533.665941,542.677419 536.968444,538.716129 C540.931447,534.094624 544.018498,509.215054 546,463 L605,483 C599.715996,541.098925 592.45049,575.688172 584.524483,585.591398 C575.277476,594.834409 559.117519,600.339785 536,601 L475,601 C457.166485,601 443.177367,594.834409 433.930359,584.270968 C424.022851,572.387097 419,557.505376 419,541 L419,347 L480,347 Z M585,248 L585,366 L522,366 L522,306 L285,306 L285,366 L222,366 L222,248 L585,248 Z" id="шкн" fill="#FFFFFF" fill-rule="nonzero"></path>
    </g>
</svg>